<?xml version="1.0" encoding="UTF-8" standalone="no"?>
<!-- Generator: Adobe Illustrator 13.0.0, SVG Export Plug-In . SVG Version: 6.00 Build 14948)  -->

<svg
   xmlns:dc="http://purl.org/dc/elements/1.1/"
   xmlns:cc="http://creativecommons.org/ns#"
   xmlns:rdf="http://www.w3.org/1999/02/22-rdf-syntax-ns#"
   xmlns:svg="http://www.w3.org/2000/svg"
   xmlns="http://www.w3.org/2000/svg"
   xmlns:xlink="http://www.w3.org/1999/xlink"
   xmlns:sodipodi="http://sodipodi.sourceforge.net/DTD/sodipodi-0.dtd"
   xmlns:inkscape="http://www.inkscape.org/namespaces/inkscape"
   version="1.1"
   id="Layer_1"
   x="0px"
   y="0px"
   width="600.40747"
   height="211.50719"
   viewBox="0 0 600.40747 211.50719"
   enable-background="new 0 0 88 31"
   xml:space="preserve"
   inkscape:version="0.48.5 r10040"
   sodipodi:docname="wcag2AAA-blue-v.svg"><metadata
     id="metadata3344"><rdf:RDF><cc:Work
         rdf:about=""><dc:format>image/svg+xml</dc:format><dc:type
           rdf:resource="http://purl.org/dc/dcmitype/StillImage" /></cc:Work></rdf:RDF></metadata><defs
     id="defs3342" /><sodipodi:namedview
     pagecolor="#ffffff"
     bordercolor="#666666"
     borderopacity="1"
     objecttolerance="10"
     gridtolerance="10"
     guidetolerance="10"
     inkscape:pageopacity="0"
     inkscape:pageshadow="2"
     inkscape:window-width="1920"
     inkscape:window-height="1029"
     id="namedview3340"
     showgrid="false"
     inkscape:zoom="2.9479978"
     inkscape:cx="224.21997"
     inkscape:cy="112.10081"
     inkscape:window-x="0"
     inkscape:window-y="33"
     inkscape:window-maximized="1"
     inkscape:current-layer="Layer_1"
     fit-margin-top="0"
     fit-margin-left="0"
     fit-margin-right="0"
     fit-margin-bottom="0" /><polygon
     style="fill:#ccdee9;fill-rule:evenodd"
     id="polygon3186"
     points="0,0 88,0 88,31 0,31 0,0 "
     clip-rule="evenodd"
     transform="scale(6.8228125,6.8228125)" /><polygon
     style="fill:#ffffff;fill-rule:evenodd"
     id="polygon3188"
     points="0.366,0 30.366,0 30.366,31 0.366,31 0.366,0 "
     clip-rule="evenodd"
     transform="matrix(6.8228125,0,0,6.8548388,-3.4971542,-0.49281279)" /><g
     id="g3218"
     transform="scale(6.8228125,6.8228125)"><defs
       id="defs3220"><rect
         height="0"
         width="1"
         y="30"
         x="87"
         id="SVGID_5_" /></defs><clipPath
       id="SVGID_6_"><use
         height="31"
         width="88"
         y="0"
         x="0"
         style="overflow:visible"
         id="use3224"
         overflow="visible"
         xlink:href="#SVGID_5_" /></clipPath><polygon
       style="fill:#3c3c3f;fill-rule:evenodd"
       id="polygon3226"
       points="0,0 88,0 88,31 0,31 0,0 "
       clip-rule="evenodd"
       clip-path="url(#SVGID_6_)" /></g><g
     id="g3280"
     transform="scale(6.8228125,6.8228125)"><defs
       id="defs3282"><rect
         height="0"
         width="0.16"
         y="30"
         x="87"
         id="SVGID_15_" /></defs><clipPath
       id="SVGID_16_"><use
         height="31"
         width="88"
         y="0"
         x="0"
         style="overflow:visible"
         id="use3286"
         overflow="visible"
         xlink:href="#SVGID_15_" /></clipPath><polygon
       style="fill:#303032;fill-rule:evenodd"
       id="polygon3288"
       points="0,0 88,0 88,31 0,31 0,0 "
       clip-rule="evenodd"
       clip-path="url(#SVGID_16_)" /></g><polygon
     style="fill-rule:evenodd"
     id="polygon3304"
     points="41.549,5.886 40.533,14.705 38.909,14.705 37.904,10.074 36.965,14.705 35.353,14.705 34.266,5.886 34.266,5.886 35.79,5.886 36.422,12.36 37.184,8.172 38.631,8.172 39.517,12.36 40.014,5.886 "
     clip-rule="evenodd"
     transform="scale(6.8228125,6.8228125)" /><path
     style="fill-rule:evenodd"
     inkscape:connector-curvature="0"
     id="path3306"
     d="m 302.70772,40.159074 h 14.54624 l 16.23829,60.170386 h -11.88534 l -3.70478,-14.873733 h -15.92445 l -3.62974,14.873733 h -11.89216 l 16.25194,-60.170386 0,0 z m 7.25265,10.875564 -5.60153,24.62353 h 11.244 l -5.64247,-24.62353 0,0 z"
     clip-rule="evenodd" /><polygon
     style="fill-rule:evenodd"
     id="polygon3308"
     points="52.086,7.421 50.332,7.421 50.332,7.421 50.332,5.886 55.584,5.886 55.584,7.421 53.829,7.421 53.829,13.169 55.584,13.169 55.584,14.705 50.332,14.705 50.332,13.169 52.086,13.169 "
     clip-rule="evenodd"
     transform="scale(6.8228125,6.8228125)" /><polygon
     style="fill-rule:evenodd"
     id="polygon3310"
     points="56.563,10.363 60.29,10.363 60.29,12.082 56.563,12.082 56.563,10.363 "
     clip-rule="evenodd"
     transform="scale(6.8228125,6.8228125)" /><path
     style="fill:#114777;fill-rule:evenodd"
     inkscape:connector-curvature="0"
     id="path3312"
     d="m 441.05389,40.159074 h 14.55306 l 16.23829,60.170386 H 459.9599 l -3.71161,-14.873733 h -15.91762 l -3.62291,14.873733 h -11.88534 l 16.23147,-60.170386 0,0 z m 7.25265,10.875564 -5.60153,24.62353 h 11.244 l -5.64247,-24.62353 0,0 z"
     clip-rule="evenodd" /><path
     style="fill:#114777;fill-rule:evenodd"
     inkscape:connector-curvature="0"
     id="path3314"
     d="m 490.74443,40.159074 h 14.55306 l 16.2383,60.170386 h -11.87852 l -3.71161,-14.873733 h -15.93127 l -3.62291,14.873733 h -11.88534 l 16.23829,-60.170386 0,0 z m 7.25265,10.875564 -5.60152,24.62353 h 11.24399 l -5.64247,-24.62353 0,0 z"
     clip-rule="evenodd" /><path
     style="fill:#114777;fill-rule:evenodd"
     inkscape:connector-curvature="0"
     id="path3316"
     d="m 540.43498,40.159074 h 14.55988 l 16.23829,60.170386 H 559.34781 L 555.6362,85.455727 h -15.91762 l -3.62291,14.873733 h -11.89899 l 16.2383,-60.170386 0,0 z m 7.25265,10.875564 -5.60153,24.62353 h 11.24399 l -5.64246,-24.62353 0,0 z"
     clip-rule="evenodd" /><polygon
     style="fill-rule:evenodd"
     id="polygon3318"
     points="40.662,18.234 39.722,26.394 38.219,26.394 37.29,22.109 36.421,26.394 34.929,26.394 33.923,18.234 33.923,18.234 35.333,18.234 35.918,24.224 36.623,20.349 37.962,20.349 38.782,24.224 39.241,18.234 "
     clip-rule="evenodd"
     transform="scale(6.8228125,6.8228125)" /><path
     style="fill-rule:evenodd"
     inkscape:connector-curvature="0"
     id="path3320"
     d="m 317.73156,178.47113 c -1.73982,0.90061 -3.56151,1.56925 -5.47872,2.01273 -1.91721,0.44348 -3.92994,0.67546 -6.03819,0.67546 -7.51192,0 -13.23626,-2.46986 -17.19349,-7.4164 -3.95041,-4.95336 -5.92902,-12.09685 -5.92902,-21.4441 0,-9.37454 1.97861,-16.5385 5.92902,-21.47821 3.95723,-4.95336 9.68157,-7.42322 17.19349,-7.42322 2.10825,0 4.13462,0.22515 6.07912,0.67546 1.93768,0.44348 3.75255,1.11894 5.43779,2.01273 v 12.2333 c -1.8831,-1.73982 -3.72526,-3.00886 -5.51966,-3.80713 -1.76711,-0.81874 -3.5888,-1.22811 -5.47872,-1.22811 -4.02546,0 -7.07525,1.59654 -9.13574,4.80326 -2.04003,3.18626 -3.05662,7.92129 -3.05662,14.21192 0,6.25652 1.01659,10.99837 3.05662,14.2051 2.06049,3.17943 5.11028,4.76914 9.13574,4.76914 1.88992,0 3.71161,-0.40254 5.47872,-1.19399 1.7944,-0.81874 3.62974,-2.10143 5.51966,-3.84124 v 12.2333 l 0,0 z"
     clip-rule="evenodd" /><path
     style="fill-rule:evenodd"
     inkscape:connector-curvature="0"
     id="path3322"
     d="m 339.66007,124.40716 h 13.46141 l 15.03066,55.66733 h -10.99837 l -3.43188,-13.76161 h -14.72363 l -3.35682,13.76161 h -10.99838 l 15.01701,-55.66733 0,0 z m 6.72048,10.07047 -5.18534,22.78138 h 10.39796 l -5.21262,-22.78138 0,0 z"
     clip-rule="evenodd" /><path
     style="fill-rule:evenodd"
     inkscape:connector-curvature="0"
     id="path3324"
     d="M 401.89777,170.01084 V 159.3809 h -7.53238 v -9.24491 h 17.15937 v 25.50367 c -2.11507,1.82169 -4.44847,3.19308 -7.01385,4.13463 -2.53127,0.92108 -5.25357,1.3782 -8.16009,1.3782 -7.21171,0 -12.77912,-2.49714 -16.70224,-7.49827 -3.92994,-5.02159 -5.88809,-12.1446 -5.88809,-21.36222 0,-9.37455 1.97179,-16.5385 5.9222,-21.47822 3.9777,-4.95336 9.70887,-7.42322 17.20031,-7.42322 2.23106,0 4.43483,0.3275 6.59766,0.96884 2.15601,0.6277 4.18239,1.53514 6.07913,2.72231 v 12.19918 c -1.54196,-1.99226 -3.31589,-3.48645 -5.32862,-4.47576 -1.99226,-1.0166 -4.17556,-1.52831 -6.56354,-1.52831 -4.17556,0 -7.29359,1.56925 -9.3609,4.72821 -2.06731,3.13167 -3.09756,7.89399 -3.09756,14.28697 0,6.18147 0.99613,10.89603 2.98839,14.13004 1.99226,3.23402 4.89196,4.8442 8.69227,4.8442 1.13941,0 2.13554,-0.0955 2.98157,-0.29338 0.82556,-0.21833 1.50101,-0.539 2.02637,-0.96202 l 0,0 z"
     clip-rule="evenodd" /><path
     style="fill-rule:evenodd"
     inkscape:connector-curvature="0"
     id="path3326"
     d="m 466.08679,170.3861 h 23.45683 v 9.69521 h -35.34899 v -9.40183 l 5.96314,-6.3384 c 7.08208,-7.53238 11.38727,-12.16507 12.90193,-13.91171 1.86263,-2.13554 3.21355,-4.01864 4.03229,-5.66293 0.81873,-1.66477 1.23493,-3.30225 1.23493,-4.92608 0,-2.4835 -0.75734,-4.40071 -2.27882,-5.7448 -1.4942,-1.35774 -3.60927,-2.05367 -6.37251,-2.05367 -1.97179,0 -4.18238,0.40255 -6.64542,1.20082 -2.43574,0.77097 -4.98065,1.89674 -7.64155,3.39093 v -10.25468 c 2.6609,-0.97567 5.26039,-1.70571 7.79165,-2.19695 2.56538,-0.51853 5.00795,-0.78462 7.34817,-0.78462 5.89491,0 10.51396,1.38503 13.87078,4.14144 3.38411,2.72913 5.06935,6.47485 5.06935,11.22353 0,2.1833 -0.37526,4.23697 -1.11894,6.14735 -0.7164,1.91039 -1.97862,4.03911 -3.7662,6.37933 -1.3168,1.69206 -4.93289,5.49919 -10.84827,11.41457 -3.21354,3.1999 -5.75845,5.75845 -7.64837,7.68249 l 0,0 z"
     clip-rule="evenodd" /><polygon
     style="fill-rule:evenodd"
     id="polygon3328"
     points="74.014,24.388 75.834,24.388 75.834,26.394 74.014,26.394 74.014,24.388 "
     clip-rule="evenodd"
     transform="scale(6.8228125,6.8228125)" /><path
     style="fill-rule:evenodd"
     inkscape:connector-curvature="0"
     id="path3330"
     d="m 530.01654,152.29882 c 0,-9.52465 1.63748,-16.72271 4.92607,-21.5942 3.30225,-4.87149 8.17373,-7.30723 14.62129,-7.30723 6.4612,0 11.32587,2.43574 14.62129,7.30723 3.29542,4.87149 4.95336,12.06955 4.95336,21.5942 0,9.49736 -1.65112,16.67495 -4.95336,21.55327 -3.28177,4.86466 -8.15326,7.3004 -14.62129,7.3004 -6.44073,0 -11.31222,-2.43574 -14.62129,-7.3004 -3.28859,-4.87149 -4.92607,-12.05591 -4.92607,-21.55327 l 0,0 z m 19.54054,-19.01518 c -2.811,0 -4.86467,1.50102 -6.15418,4.50306 -1.28951,2.98839 -1.93768,7.81894 -1.93768,14.51212 0,6.65907 0.64817,11.49644 1.93768,14.5053 1.28951,2.98839 3.34318,4.46894 6.15418,4.46894 2.83147,0 4.89878,-1.48737 6.18147,-4.46894 1.28951,-3.00886 1.9445,-7.84623 1.9445,-14.5053 0,-6.68636 -0.65499,-11.52373 -1.9445,-14.51212 -1.28269,-3.00204 -3.35,-4.50306 -6.18147,-4.50306 l 0,0 z"
     clip-rule="evenodd" /><path
     inkscape:connector-curvature="0"
     id="path3332"
     d="m 182.24414,67.034133 1.84216,11.203058 -6.5226,12.472101 c 0,0 -2.50398,-5.28768 -6.65907,-8.221489 -3.50693,-2.469858 -5.78574,-3.002037 -9.3609,-2.265174 -4.57811,0.941548 -9.78391,6.42709 -12.04909,13.181674 -2.71547,8.085037 -2.74277,11.994507 -2.83829,15.590127 -0.1501,5.75845 0.75734,9.16304 0.75734,9.16304 0,0 -3.96406,-7.31406 -3.92312,-18.04634 0.0273,-7.655198 1.22811,-14.600821 4.77597,-21.450925 3.11802,-6.024543 7.75071,-9.640634 11.85805,-10.070471 4.25061,-0.43666 7.60743,1.610184 10.20692,3.827598 2.72231,2.326579 5.48555,7.416397 5.48555,7.416397 l 6.42708,-12.799596 0,0 z" /><path
     inkscape:connector-curvature="0"
     id="path3334"
     d="m 183.04924,130.39759 c 0,0 -2.87923,5.15123 -4.68045,7.13666 -1.7944,1.97862 -5.00795,5.47872 -8.97882,7.23219 -3.97088,1.75346 -6.05184,2.08095 -9.96813,1.7057 -3.9163,-0.3889 -7.55968,-2.65408 -8.83555,-3.5888 -1.27586,-0.95519 -4.53717,-3.7389 -6.37932,-6.33839 -1.84216,-2.5995 -4.72139,-7.79848 -4.72139,-7.79848 0,0 1.60336,5.21263 2.60631,7.4164 0.57994,1.27586 2.3607,5.17169 4.87831,8.55581 2.35387,3.15896 6.92516,8.59674 13.87078,9.82485 6.94563,1.2281 11.71477,-1.88992 12.90194,-2.64726 1.18035,-0.75733 3.67067,-2.83829 5.24674,-4.52352 1.6443,-1.76711 3.1999,-4.00499 4.0664,-5.35591 0.6277,-0.98248 1.65112,-2.97474 1.65112,-2.97474 l -1.65794,-8.64451 0,0 z" /><polygon
     style="fill:#005b9c"
     id="polygon3336"
     points="11.552,22.754 9.171,14.787 6.79,22.754 6.631,22.754 2.822,9.898 4.488,9.898 6.79,17.723 8.346,12.454 7.584,9.898 9.25,9.898 9.25,9.898 11.552,17.723 13.854,9.898 15.52,9.898 11.71,22.754 "
     transform="scale(6.8228125,6.8228125)" /><path
     style="fill:#005b9c"
     inkscape:connector-curvature="0"
     id="path3338"
     d="m 138.1756,127.09535 c 0,7.94176 -2.10825,14.62811 -6.33157,20.0386 -4.22332,5.41049 -9.69522,8.11233 -16.40887,8.11233 -5.0557,0 -9.45641,-1.60337 -13.21578,-4.81691 -3.759373,-3.21354 -6.536258,-7.55968 -8.33748,-13.04522 l 8.87648,-3.68432 c 1.30316,3.32271 3.01568,5.94267 5.1444,7.85306 2.12872,1.91039 4.63951,2.87241 7.52556,2.87241 3.02933,0 5.59471,-1.69889 7.68931,-5.08982 2.0946,-3.39776 3.1385,-7.47098 3.1385,-12.24013 0,-5.26721 -1.12577,-9.35407 -3.35683,-12.2333 -2.59949,-3.39776 -6.67953,-5.09664 -12.24012,-5.09664 h -4.33249 v -5.19216 l 15.16711,-26.213248 h -18.3056 l -5.089822,8.664971 H 94.850739 V 67.532198 h 42.233211 v 5.308148 l -16.02679,27.611924 c 5.63565,1.80804 9.89308,5.08982 12.77913,9.85896 2.89287,4.76233 4.33931,10.35703 4.33931,16.78412 l 0,0 z" /></svg>